<svg width="253" height="182" viewBox="0 0 253 182" fill="none" xmlns="http://www.w3.org/2000/svg">
<path d="M34 35C34 18.4315 47.4315 5 64 5H188C204.569 5 218 18.4315 218 35V255H34V35Z" fill="#F5F5F5" stroke="#514F8E" stroke-width="10"/>
<rect x="73" y="5" width="106" height="16" rx="4" fill="#514F8E"/>
<rect x="47.0195" y="105.132" width="158.647" height="45.265" rx="3.5" fill="white" stroke="#F5F5F5"/>
<rect x="47.0195" y="156.61" width="158.647" height="45.265" rx="3.5" fill="white" stroke="#F5F5F5"/>
<path d="M152.959 132.104H192.057" stroke="#E3E3E2" stroke-width="3" stroke-linecap="round"/>
<path d="M152.959 124.936H161.431" stroke="#E3E3E2" stroke-width="3" stroke-linecap="round"/>
<path d="M165.34 124.936H178.373" stroke="#E3E3E2" stroke-width="3" stroke-linecap="round"/>
<rect x="93" y="119" width="45" height="18" rx="4" fill="#E3E3E2"/>
<circle cx="68" cy="128" r="12" fill="#FE4A64"/>
<circle cx="68" cy="178.211" r="12" fill="#FE4A64"/>
<path d="M63.8976 133.789H71.8656V131.549H67.5136L70.2496 128.829C71.1456 127.965 71.6736 127.021 71.6736 125.933C71.6736 124.013 70.0416 122.445 68.0416 122.445C65.9776 122.445 64.3136 124.109 64.3136 126.189H66.5216C66.5216 125.277 67.1936 124.573 68.0256 124.573C68.8096 124.573 69.4496 125.165 69.4496 125.933C69.4496 126.509 69.1936 126.909 68.8096 127.309L63.8976 132.173V133.789Z" fill="white"/>
<path d="M63.6736 182.984C64.4256 184.296 65.9616 185.16 67.8496 185.16C70.5376 185.16 72.2016 183.432 72.2016 181.24C72.2016 179.528 71.1136 178.152 69.1936 177.944C69.1936 177.944 69.1936 177.944 69.1776 177.944L71.7536 175.608V173.848H64.6656V176.088H68.5376L65.6576 178.6L66.4416 179.88C66.7936 179.784 67.2576 179.736 67.6416 179.736C68.9856 179.736 69.7856 180.424 69.7856 181.304C69.7856 182.296 68.9056 182.92 67.8016 182.92C66.7936 182.92 66.0256 182.52 65.5936 181.752L63.6736 182.984Z" fill="white"/>
<g filter="url(#filter0_d)">
<rect x="15" y="37" width="223" height="63" rx="4" fill="white"/>
</g>
<path d="M162 74H215" stroke="#E3E3E2" stroke-width="5" stroke-linecap="round"/>
<path d="M162 64H174" stroke="#E3E3E2" stroke-width="5" stroke-linecap="round"/>
<path d="M181 64H199" stroke="#E3E3E2" stroke-width="5" stroke-linecap="round"/>
<rect x="81" y="57" width="61" height="24" rx="4" fill="#E3E3E2"/>
<circle cx="46.5" cy="68.5" r="16.5" fill="#BC284B"/>
<path d="M45.24 77H48.936V60.272H42.792V63.632H45.24V77Z" fill="white"/>
<path d="M152.959 182.104H192.056" stroke="#E3E3E2" stroke-width="3" stroke-linecap="round"/>
<path d="M152.959 174.936H161.43" stroke="#E3E3E2" stroke-width="3" stroke-linecap="round"/>
<path d="M165.34 174.936H178.372" stroke="#E3E3E2" stroke-width="3" stroke-linecap="round"/>
<rect x="93" y="169" width="45" height="18" rx="4" fill="#E3E3E2"/>
<defs>
<filter id="filter0_d" x="0" y="27" width="253" height="93" filterUnits="userSpaceOnUse" color-interpolation-filters="sRGB">
<feFlood flood-opacity="0" result="BackgroundImageFix"/>
<feColorMatrix in="SourceAlpha" type="matrix" values="0 0 0 0 0 0 0 0 0 0 0 0 0 0 0 0 0 0 127 0"/>
<feOffset dy="5"/>
<feGaussianBlur stdDeviation="7.5"/>
<feColorMatrix type="matrix" values="0 0 0 0 0 0 0 0 0 0 0 0 0 0 0 0 0 0 0.25 0"/>
<feBlend mode="normal" in2="BackgroundImageFix" result="effect1_dropShadow"/>
<feBlend mode="normal" in="SourceGraphic" in2="effect1_dropShadow" result="shape"/>
</filter>
</defs>
</svg>
