<svg width="164" height="205" viewBox="0 0 164 205" fill="none" xmlns="http://www.w3.org/2000/svg">
<g filter="url(#filter0_d)">
<path fill-rule="evenodd" clip-rule="evenodd" d="M15.9873 14C15.9873 11.7909 17.7782 10 19.9873 10H144.695C146.904 10 148.695 11.7909 148.695 14V90.8534V180.692C148.695 182.901 146.904 184.692 144.695 184.692H19.9873C17.7782 184.692 15.9873 182.901 15.9873 180.692V14Z" fill="white"/>
</g>
<mask id="mask0" mask-type="alpha" maskUnits="userSpaceOnUse" x="15" y="10" width="134" height="175">
<path fill-rule="evenodd" clip-rule="evenodd" d="M15.9873 14C15.9873 11.7909 17.7782 10 19.9873 10H144.695C146.904 10 148.695 11.7909 148.695 14V90.8534V180.692C148.695 182.901 146.904 184.692 144.695 184.692H19.9873C17.7782 184.692 15.9873 182.901 15.9873 180.692V14Z" fill="white"/>
</mask>
<g mask="url(#mask0)">
<path d="M14.1992 48.7455C14.1992 46.5364 15.9901 44.7455 18.1992 44.7455H146.483C148.692 44.7455 150.483 46.5363 150.483 48.7455V183.368C150.483 185.577 148.692 187.368 146.483 187.368H18.1992C15.9901 187.368 14.1992 185.577 14.1992 183.368V48.7455Z" fill="#F5F5F5"/>
<g clip-path="url(#clip0)">
<rect x="77.771" y="86.9889" width="63.784" height="38.0327" rx="5.33333" fill="#1564BF"/>
<path d="M97.1078 114.119H101.051L104.41 109.056C105.857 106.91 106.86 105.323 106.86 103.41C106.86 100.238 104.223 97.6246 100.771 97.6246C97.3877 97.6246 94.6348 100.238 94.6348 103.457C94.6348 107.073 97.761 109.01 99.954 109.01C100.211 109.01 100.491 108.986 100.631 108.916L97.1078 114.119ZM100.771 106C99.3708 106 98.2276 104.81 98.2276 103.434C98.2276 102.034 99.3708 100.891 100.771 100.891C102.17 100.891 103.337 102.011 103.337 103.434C103.337 104.834 102.287 106 100.771 106ZM105.845 112.439C105.845 113.489 106.732 114.329 107.758 114.329C108.785 114.329 109.671 113.489 109.671 112.439C109.671 111.389 108.785 110.549 107.758 110.549C106.732 110.549 105.845 111.389 105.845 112.439ZM110.408 108.776C110.408 111.833 113.091 114.352 116.427 114.352C119.786 114.352 122.493 111.833 122.493 108.776C122.493 106.98 121.513 105.51 120.16 104.764C120.906 104.157 121.373 103.317 121.373 102.221C121.373 99.6776 119.133 97.5779 116.427 97.5779C113.72 97.5779 111.481 99.6776 111.481 102.221C111.481 103.317 111.971 104.18 112.694 104.764C111.364 105.533 110.408 106.98 110.408 108.776ZM116.427 103.83C115.517 103.83 114.77 103.107 114.77 102.221C114.77 101.357 115.517 100.681 116.427 100.681C117.36 100.681 118.107 101.357 118.107 102.221C118.107 103.107 117.36 103.83 116.427 103.83ZM114 108.776C114 107.517 115.097 106.467 116.427 106.467C117.757 106.467 118.9 107.54 118.9 108.776C118.9 110.036 117.757 111.086 116.427 111.086C115.12 111.086 114 110.059 114 108.776Z" fill="white"/>
</g>
<rect x="23.3169" y="16.9974" width="62.252" height="20.2681" rx="1.8" fill="#E3E3E2"/>
<rect x="92.4175" y="16.9974" width="49.5218" height="20.2681" rx="1.8" fill="#E3E3E2"/>
<rect x="23.4912" y="62.6008" width="118.06" height="4.34316" rx="1.8" fill="#E2E2E2"/>
<rect x="23.4912" y="52.4489" width="86.6529" height="4.34316" rx="1.8" fill="#E2E2E2"/>
</g>
<path fill-rule="evenodd" clip-rule="evenodd" d="M18.6029 169.668C18.6029 172.663 32.5468 175.091 49.747 175.091C66.9471 175.091 80.8906 172.663 80.8906 169.668C80.8906 166.673 66.9471 164.246 49.747 164.246C32.5468 164.246 18.6029 166.673 18.6029 169.668Z" fill="#EFEFEF"/>
<path fill-rule="evenodd" clip-rule="evenodd" d="M88.666 137.391C90.3487 137.873 92.1155 138.108 93.895 138.059C98.705 137.924 103.431 135.848 107.085 132.307L113.302 132.15C115.299 132.099 116.874 130.443 116.822 128.45C116.769 126.457 115.108 124.883 113.112 124.933L105.407 125.127C104.405 125.152 103.459 125.591 102.795 126.339C100.373 129.067 96.9665 130.75 93.6842 130.842C90.3607 130.935 87.026 129.278 85.385 126.719C84.472 125.296 83.9341 123.467 83.4885 121.703C82.9222 119.46 82.4633 117.163 82.1245 114.876C81.8321 112.903 79.9936 111.539 78.0183 111.828C76.0425 112.118 74.6776 113.951 74.9695 115.923C75.3434 118.448 75.8504 120.984 76.4755 123.46C77.0705 125.816 77.8237 128.312 79.2951 130.606C81.3901 133.873 84.8057 136.284 88.666 137.391Z" fill="#A1A2C3"/>
<path fill-rule="evenodd" clip-rule="evenodd" d="M84.444 117.125C87.3786 135.676 74.6865 153.088 56.0952 156.017C37.5035 158.945 20.0532 146.281 17.1186 127.73C14.184 109.179 26.876 91.7661 45.4677 88.8379C64.0591 85.9093 81.5094 98.5742 84.444 117.125Z" fill="#A1A2C3"/>
<path fill-rule="evenodd" clip-rule="evenodd" d="M63.3859 109.279C68.8336 109.279 73.6387 113.239 74.5139 118.775L74.6552 119.665C75.6245 125.792 71.4175 131.563 65.2777 132.53L54.1564 134.281H54.1561C51.1998 134.749 48.2233 134.028 45.7787 132.254C43.3341 130.479 41.7309 127.877 41.2641 124.925L41.1229 124.035C40.6561 121.083 41.378 118.114 43.1559 115.675C44.9339 113.236 47.5422 111.636 50.5 111.17L61.6216 109.418C62.214 109.325 62.8041 109.279 63.3859 109.279ZM52.3811 141.495C53.3375 141.495 54.2996 141.42 55.2617 141.268L66.3829 139.517C76.384 137.941 83.2359 128.541 81.657 118.562L81.5161 117.672C80.7539 112.854 78.1449 108.611 74.169 105.726C70.1935 102.841 65.3447 101.67 60.5164 102.431L49.3948 104.183C44.5665 104.943 40.3146 107.546 37.4234 111.514C34.5315 115.481 33.3585 120.319 34.1207 125.137L34.2615 126.028C35.0241 130.846 37.6332 135.088 41.6091 137.973C44.7926 140.284 48.5366 141.494 52.3811 141.495Z" fill="white"/>
<mask id="mask1" mask-type="alpha" maskUnits="userSpaceOnUse" x="16" y="64" width="54" height="23">
<path fill-rule="evenodd" clip-rule="evenodd" d="M69.1611 64.5839H16.0609V86.2784H69.1611V64.5839Z" fill="white"/>
</mask>
<g mask="url(#mask1)">
<path fill-rule="evenodd" clip-rule="evenodd" d="M61.4521 72.4634C59.18 74.1607 52.9209 76.9111 43.0903 78.46C33.2594 80.008 26.4559 79.3147 23.7703 78.3988C26.0425 76.7014 32.3011 73.951 42.1317 72.4022C51.9623 70.8541 58.7661 71.5474 61.4521 72.4634ZM32.1846 86.2784C35.8727 86.2784 39.9723 85.9414 44.1693 85.2804C50.632 84.2627 56.6371 82.5843 61.079 80.5545C66.9467 77.8736 69.6422 74.7467 69.0909 71.2601C68.5392 67.7738 65.0092 65.627 58.5994 64.8802C53.7463 64.3149 47.5155 64.5637 41.0527 65.5814C34.5904 66.5992 28.5849 68.2775 24.1431 70.3073C18.2754 72.9882 15.5799 76.1151 16.1312 79.6018C16.6832 83.0881 20.2129 85.2348 26.6227 85.9817C28.3237 86.18 30.1946 86.2784 32.1846 86.2784Z" fill="#A1A2C3"/>
</g>
<path fill-rule="evenodd" clip-rule="evenodd" d="M62.2497 118.972C62.2893 118.972 62.3292 118.969 62.3696 118.962C62.785 118.897 63.0682 118.508 63.0031 118.093C62.8912 117.388 63.0617 116.681 63.4824 116.103C63.9039 115.526 64.5252 115.146 65.2322 115.035C66.6934 114.804 68.0667 115.803 68.2974 117.259C68.3629 117.674 68.7558 117.957 69.1681 117.891C69.5839 117.826 69.8671 117.437 69.8016 117.022C69.4403 114.738 67.282 113.173 64.995 113.534C63.886 113.708 62.9114 114.304 62.2512 115.209C61.5906 116.115 61.3234 117.224 61.4985 118.331C61.5583 118.705 61.8815 118.972 62.2497 118.972Z" fill="white"/>
<path fill-rule="evenodd" clip-rule="evenodd" d="M46.7493 121.413C46.7889 121.413 46.8289 121.41 46.8688 121.404C47.2846 121.339 47.5678 120.949 47.5027 120.535C47.272 119.078 48.2722 117.706 49.7318 117.476C51.1889 117.247 52.5667 118.244 52.7974 119.701C52.8629 120.115 53.255 120.398 53.6681 120.333C54.0839 120.267 54.3671 119.878 54.3016 119.464C53.9403 117.179 51.7816 115.613 49.4947 115.975C47.2054 116.336 45.6368 118.488 45.9981 120.772C46.0575 121.146 46.3811 121.413 46.7493 121.413Z" fill="white"/>
<path fill-rule="evenodd" clip-rule="evenodd" d="M63.3216 171.491C64.6644 171.491 65.9546 170.742 66.5794 169.455C67.4501 167.661 66.6985 165.502 64.9008 164.633L60.6188 162.564V152.407C60.6188 150.413 58.9996 148.798 57.002 148.798C55.0043 148.798 53.3851 150.413 53.3851 152.407V164.826C53.3851 166.21 54.1774 167.471 55.4254 168.074L61.7473 171.13C62.2555 171.375 62.7924 171.491 63.3216 171.491Z" fill="#A1A2C3"/>
<path fill-rule="evenodd" clip-rule="evenodd" d="M33.416 171.028C33.7952 171.028 34.1809 170.968 34.5605 170.842L39.2277 169.289C40.341 168.918 41.2052 168.031 41.5456 166.91L45.8587 152.692C46.4371 150.785 45.3566 148.77 43.4446 148.193C41.5345 147.616 39.5137 148.693 38.935 150.601L35.1643 163.032L32.2724 163.994C30.3775 164.625 29.3534 166.668 29.985 168.559C30.4902 170.071 31.9015 171.028 33.416 171.028Z" fill="#A1A2C3"/>
<mask id="mask2" mask-type="alpha" maskUnits="userSpaceOnUse" x="8" y="116" width="22" height="42">
<path fill-rule="evenodd" clip-rule="evenodd" d="M29.418 116.393H8.99968V157.604H29.418V116.393Z" fill="white"/>
</mask>
<g mask="url(#mask2)">
<path fill-rule="evenodd" clip-rule="evenodd" d="M25.8002 157.604C27.2976 157.604 28.6975 156.669 29.2168 155.178C29.872 153.295 28.8741 151.239 26.9873 150.585C21.6009 148.717 17.36 143.69 16.4345 138.075C15.5093 132.46 17.9128 126.343 22.416 122.852C23.9937 121.629 24.2789 119.362 23.0533 117.788C21.8282 116.214 19.5564 115.929 17.9783 117.152C11.3405 122.298 7.93225 130.97 9.29675 139.247C10.6609 147.523 16.6728 154.65 24.6131 157.403C25.006 157.539 25.4065 157.604 25.8002 157.604Z" fill="#A1A2C3"/>
</g>
<defs>
<filter id="filter0_d" x="0.987305" y="0" width="162.708" height="204.692" filterUnits="userSpaceOnUse" color-interpolation-filters="sRGB">
<feFlood flood-opacity="0" result="BackgroundImageFix"/>
<feColorMatrix in="SourceAlpha" type="matrix" values="0 0 0 0 0 0 0 0 0 0 0 0 0 0 0 0 0 0 127 0"/>
<feOffset dy="5"/>
<feGaussianBlur stdDeviation="7.5"/>
<feColorMatrix type="matrix" values="0 0 0 0 0 0 0 0 0 0 0 0 0 0 0 0 0 0 0.25 0"/>
<feBlend mode="normal" in2="BackgroundImageFix" result="effect1_dropShadow"/>
<feBlend mode="normal" in="SourceGraphic" in2="effect1_dropShadow" result="shape"/>
</filter>
<clipPath id="clip0">
<rect width="64.1802" height="38.8251" fill="white" transform="translate(77.771 86.4919)"/>
</clipPath>
</defs>
</svg>
